<svg xmlns="http://www.w3.org/2000/svg" fill="none" viewBox="0 0 100 100" id="Ralex-Sit-Reading-4--Streamline-Ux.svg" height="100" width="100"><desc>Ralex Sit Reading 4 Streamline Illustration: https://streamlinehq.com</desc><path fill="#e5e7eb" d="M91.4596 53.5027C91.4604 47.0737 90.0221 40.7261 87.2504 34.9254C84.4787 29.1247 80.4436 24.0179 75.4413 19.9797C70.4389 15.9414 64.5961 13.074 58.3413 11.5879C52.0866 10.1018 45.5785 10.0345 39.2942 11.3911C33.0101 12.7476 27.1092 15.4935 22.0245 19.4275C16.9397 23.3616 12.8 28.3838 9.909 34.1259C7.0179 39.8682 5.4488 46.1846 5.3167 52.6122C5.1846 59.0398 6.4929 65.4153 9.1457 71.2715H87.6215C90.1552 65.6906 91.464 59.6318 91.4595 53.5027Z" stroke-width="1"></path><path stroke="#0f3f6c" stroke-linecap="round" stroke-linejoin="round" d="M6.3845 71.2715H90.3826" stroke-width="1"></path><path stroke="#0f3f6c" stroke-linecap="round" stroke-linejoin="round" d="M1.5385 71.2715H4.2307" stroke-width="1"></path><path stroke="#0f3f6c" stroke-linecap="round" stroke-linejoin="round" d="M92.5365 71.2715H95.2287" stroke-width="1"></path><path fill="#e5e7eb" stroke="#0f3f6c" stroke-linecap="round" stroke-linejoin="round" d="M9.1564 74.1791C8.872 74.179 8.5962 74.277 8.3756 74.4566C8.1549 74.636 8.0029 74.886 7.9449 75.1645L5.3604 87.5488C5.3227 87.729 5.3258 87.9154 5.3693 88.0943C5.4128 88.2733 5.4956 88.4402 5.6117 88.5831C5.7279 88.726 5.8744 88.8411 6.0407 88.9203C6.207 88.9993 6.3888 89.0403 6.573 89.0403H59.6512C59.8354 89.0405 60.0173 88.9996 60.1838 88.9206C60.3502 88.8416 60.4969 88.7264 60.6132 88.5835C60.7294 88.4406 60.8123 88.2736 60.8559 88.0946C60.8994 87.9156 60.9025 87.7291 60.8648 87.5488L58.2803 75.1645C58.2221 74.8859 58.0698 74.6359 57.849 74.4564C57.6281 74.2769 57.3522 74.179 57.0677 74.1791H9.1564Z" stroke-width="1"></path><path stroke="#0f3f6c" stroke-linecap="round" stroke-linejoin="round" d="M57.2002 74.1791H59.9355" stroke-width="1"></path><path stroke="#0f3f6c" stroke-linecap="round" stroke-linejoin="round" d="M58.5937 76.656H60.5547" stroke-width="1"></path><path stroke="#0f3f6c" stroke-linecap="round" stroke-linejoin="round" d="M59.1095 79.1328H61.1739" stroke-width="1"></path><path stroke="#0f3f6c" stroke-linecap="round" stroke-linejoin="round" d="M59.6253 81.6098H61.7931" stroke-width="1"></path><path stroke="#0f3f6c" stroke-linecap="round" stroke-linejoin="round" d="M60.1422 84.0865H62.4123" stroke-width="1"></path><path stroke="#0f3f6c" stroke-linecap="round" stroke-linejoin="round" d="M60.6581 86.5635H63.0316" stroke-width="1"></path><path stroke="#0f3f6c" stroke-linecap="round" stroke-linejoin="round" d="M59.6512 89.0404H63.6508" stroke-width="1"></path><path stroke="#0f3f6c" stroke-linecap="round" stroke-linejoin="round" d="M9.0294 74.1791H6.294" stroke-width="1"></path><path stroke="#0f3f6c" stroke-linecap="round" stroke-linejoin="round" d="M7.6359 76.656H5.6748" stroke-width="1"></path><path stroke="#0f3f6c" stroke-linecap="round" stroke-linejoin="round" d="M7.12 79.1328H5.0556" stroke-width="1"></path><path stroke="#0f3f6c" stroke-linecap="round" stroke-linejoin="round" d="M6.6042 81.6098H4.4364" stroke-width="1"></path><path stroke="#0f3f6c" stroke-linecap="round" stroke-linejoin="round" d="M6.0873 84.0865H3.8172" stroke-width="1"></path><path stroke="#0f3f6c" stroke-linecap="round" stroke-linejoin="round" d="M5.5714 86.5635H3.198" stroke-width="1"></path><path stroke="#0f3f6c" stroke-linecap="round" stroke-linejoin="round" d="M6.5783 89.0404H2.5787" stroke-width="1"></path><path fill="#0f3f6c" stroke="#0f3f6c" stroke-linecap="round" stroke-linejoin="round" d="M88.7695 42.1952H71.5391V17.965H88.7695C89.055 17.965 89.329 18.0785 89.5309 18.2804S89.8464 18.7563 89.8464 19.0419V41.1183C89.8464 41.4039 89.7328 41.6779 89.5309 41.8798S89.0551 42.1952 88.7695 42.1952Z" stroke-width="1"></path><path fill="#f9faf8" d="M86.6157 20.1188H74.7698C74.175 20.1188 73.6929 20.6009 73.6929 21.1957V38.9645C73.6929 39.5593 74.175 40.0414 74.7698 40.0414H86.6157C87.2104 40.0414 87.6926 39.5593 87.6926 38.9645V21.1957C87.6926 20.6009 87.2104 20.1188 86.6157 20.1188Z" stroke-width="1"></path><path fill="#0f3f6c" stroke="#0f3f6c" stroke-linecap="round" stroke-linejoin="round" d="M71.5391 42.1952H54.3087C54.0231 42.1952 53.7491 42.0817 53.5472 41.8798S53.2318 41.4039 53.2318 41.1183V19.0419C53.2318 18.7563 53.3453 18.4823 53.5472 18.2804S54.0231 17.965 54.3087 17.965H71.5391V42.1952Z" stroke-width="1"></path><path fill="#f9faf8" d="M68.3084 20.1188H56.4625C55.8677 20.1188 55.3856 20.6009 55.3856 21.1957V38.9645C55.3856 39.5593 55.8677 40.0414 56.4625 40.0414H68.3084C68.9031 40.0414 69.3853 39.5593 69.3853 38.9645V21.1957C69.3853 20.6009 68.9031 20.1188 68.3084 20.1188Z" stroke-width="1"></path><path fill="#0f3f6c" stroke="#0f3f6c" stroke-linecap="round" stroke-linejoin="round" d="M93.0771 13.6574H50.5395C50.2539 13.6574 49.98 13.7709 49.778 13.9728S49.4626 14.4487 49.4626 14.7343C49.4626 15.0199 49.5761 15.2939 49.778 15.4958S50.2539 15.8112 50.5395 15.8112H93.0771C93.3626 15.8112 93.6366 15.6977 93.8385 15.4958S94.154 15.0199 94.154 14.7343C94.154 14.4487 94.0404 14.1747 93.8385 13.9728S93.3627 13.6574 93.0771 13.6574Z" stroke-width="1"></path><path stroke="#0f3f6c" stroke-linecap="round" stroke-linejoin="round" d="M68.3084 20.1188H56.4625C55.8677 20.1188 55.3856 20.6009 55.3856 21.1957V38.9645C55.3856 39.5593 55.8677 40.0414 56.4625 40.0414H68.3084C68.9031 40.0414 69.3853 39.5593 69.3853 38.9645V21.1957C69.3853 20.6009 68.9031 20.1188 68.3084 20.1188Z" stroke-width="1"></path><path stroke="#0f3f6c" stroke-linecap="round" stroke-linejoin="round" d="M86.6157 20.1188H74.7698C74.175 20.1188 73.6929 20.6009 73.6929 21.1957V38.9645C73.6929 39.5593 74.175 40.0414 74.7698 40.0414H86.6157C87.2104 40.0414 87.6926 39.5593 87.6926 38.9645V21.1957C87.6926 20.6009 87.2104 20.1188 86.6157 20.1188Z" stroke-width="1"></path><path fill="#f9faf8" stroke="#0f3f6c" stroke-linecap="round" stroke-linejoin="round" d="M51.6164 13.6574V44.3092C51.6155 44.5093 51.6699 44.7057 51.7737 44.8767C51.8775 45.0478 52.0265 45.1869 52.2044 45.2784C52.7143 45.5335 53.2881 45.6325 53.854 45.563C54.4199 45.4935 54.9527 45.2585 55.3856 44.8875C55.8185 45.2585 56.3513 45.4935 56.9171 45.563C57.4831 45.6325 58.0568 45.5335 58.5667 45.2784C58.7446 45.1869 58.8937 45.0478 58.9975 44.8767C59.1012 44.7057 59.1557 44.5093 59.1547 44.3092V13.6574H51.6164Z" stroke-width="1"></path><path fill="#f9faf8" stroke="#0f3f6c" stroke-linecap="round" stroke-linejoin="round" d="M84.4619 13.6574V44.3092C84.4609 44.5093 84.5154 44.7057 84.6191 44.8767C84.7229 45.0478 84.8719 45.1869 85.0498 45.2784C85.5598 45.5335 86.1335 45.6325 86.6994 45.563C87.2653 45.4935 87.7981 45.2585 88.231 44.8875C88.6639 45.2585 89.1968 45.4935 89.7626 45.563C90.3285 45.6325 90.9023 45.5335 91.4122 45.2784C91.5901 45.1869 91.7391 45.0478 91.8429 44.8767C91.9466 44.7057 92.0011 44.5093 92.0002 44.3092V13.6574H84.4619Z" stroke-width="1"></path><path stroke="#0f3f6c" stroke-linecap="round" stroke-linejoin="round" d="M55.3856 44.8875V18.5034" stroke-width="1"></path><path stroke="#0f3f6c" stroke-linecap="round" stroke-linejoin="round" d="M88.231 44.8875V18.5034" stroke-width="1"></path><path fill="#f9faf8" stroke="#0f3f6c" stroke-linecap="round" stroke-linejoin="round" d="M96.3078 48.6566H66.1546C65.5834 48.6566 65.0356 48.8835 64.6316 49.2875S64.0008 50.2392 64.0008 50.8104V71.2715H98.4616V50.8104C98.4616 50.2392 98.2347 49.6914 97.8307 49.2875S96.8789 48.6566 96.3078 48.6566Z" stroke-width="1"></path><path fill="#0f3f6c" stroke="#0f3f6c" stroke-linecap="round" stroke-linejoin="round" d="M79.0774 61.041H67.2315C66.6367 61.041 66.1546 61.5231 66.1546 62.1179V68.0408C66.1546 68.6356 66.6367 69.1177 67.2315 69.1177H79.0774C79.6721 69.1177 80.1543 68.6356 80.1543 68.0408V62.1179C80.1543 61.5231 79.6721 61.041 79.0774 61.041Z" stroke-width="1"></path><path fill="#0f3f6c" stroke="#0f3f6c" stroke-linecap="round" stroke-linejoin="round" d="M79.0774 69.1177C79.363 69.1177 79.6369 69.0043 79.8388 68.8023C80.0408 68.6004 80.1543 68.3264 80.1543 68.0408V64.2717C80.1543 63.9861 80.0408 63.7121 79.8388 63.5102S79.363 63.1948 79.0774 63.1948C78.7918 63.1948 78.5178 63.3083 78.3159 63.5102S78.0005 63.9861 78.0005 64.2717V68.0408C78.0005 68.3264 78.114 68.6004 78.3159 68.8023C78.5178 69.0043 78.7918 69.1177 79.0774 69.1177Z" stroke-width="1"></path><path fill="#0f3f6c" stroke="#0f3f6c" stroke-linecap="round" stroke-linejoin="round" d="M73.2686 68.9185C73.1531 69.0013 73.0223 69.0605 72.8839 69.0926C72.7454 69.1247 72.602 69.129 72.4618 69.1054C72.3217 69.0818 72.1876 69.0306 72.0673 68.9549C71.947 68.8792 71.8429 68.7804 71.7609 68.6643L69.5877 65.592C69.5049 65.4765 69.4457 65.3457 69.4136 65.2073C69.3815 65.0688 69.3772 64.9254 69.4008 64.7851C69.4245 64.645 69.4756 64.511 69.5512 64.3907C69.6269 64.2704 69.7258 64.1662 69.8419 64.0843C70.0747 63.919 70.3635 63.8529 70.6451 63.9006C70.9266 63.9482 71.1777 64.1057 71.3431 64.3384L73.526 67.4119C73.6084 67.5276 73.6672 67.6584 73.699 67.7969S73.7348 68.0787 73.7109 68.2187C73.687 68.3588 73.6356 68.4927 73.5597 68.6129C73.4837 68.7329 73.3848 68.8368 73.2686 68.9185H73.2686Z" stroke-width="1"></path><path fill="#0f3f6c" stroke="#0f3f6c" stroke-linecap="round" stroke-linejoin="round" d="M79.0774 50.8104H67.2315C66.6367 50.8104 66.1546 51.2926 66.1546 51.8873V57.8103C66.1546 58.4051 66.6367 58.8872 67.2315 58.8872H79.0774C79.6721 58.8872 80.1543 58.4051 80.1543 57.8103V51.8873C80.1543 51.2926 79.6721 50.8104 79.0774 50.8104Z" stroke-width="1"></path><path fill="#0f3f6c" stroke="#0f3f6c" stroke-linecap="round" stroke-linejoin="round" d="M79.0774 58.8872C79.363 58.8872 79.6369 58.7737 79.8388 58.5718S80.1543 58.0959 80.1543 57.8103V54.0411C80.1543 53.7555 80.0408 53.4816 79.8388 53.2796S79.363 52.9642 79.0774 52.9642C78.7918 52.9642 78.5178 53.0777 78.3159 53.2796S78.0005 53.7555 78.0005 54.0411V57.8103C78.0005 58.0959 78.114 58.3698 78.3159 58.5718S78.7918 58.8872 79.0774 58.8872Z" stroke-width="1"></path><path fill="#0f3f6c" stroke="#0f3f6c" stroke-linecap="round" stroke-linejoin="round" d="M76.9236 58.8872C77.2092 58.8872 77.4831 58.7737 77.685 58.5718S78.0005 58.0959 78.0005 57.8103V54.0411C78.0005 53.7555 77.887 53.4816 77.685 53.2796S77.2092 52.9642 76.9236 52.9642C76.638 52.9642 76.364 53.0777 76.1621 53.2796S75.8467 53.7555 75.8467 54.0411V57.8103C75.8467 58.0959 75.9602 58.3698 76.1621 58.5718S76.638 58.8872 76.9236 58.8872Z" stroke-width="1"></path><path fill="#0f3f6c" stroke="#0f3f6c" stroke-linecap="round" stroke-linejoin="round" d="M73.3956 58.8451C73.6701 58.9239 73.9647 58.8904 74.2145 58.7521C74.4642 58.6138 74.6489 58.3819 74.7278 58.1074L75.7702 54.4847C75.849 54.2103 75.8155 53.9158 75.6772 53.6659C75.5389 53.4161 75.307 53.2315 75.0325 53.1526C74.8966 53.1135 74.7542 53.1014 74.6136 53.1174C74.473 53.1332 74.3369 53.1767 74.2131 53.2452C74.0893 53.3137 73.9802 53.4059 73.892 53.5166C73.8039 53.6273 73.7384 53.7542 73.6993 53.8903L72.658 57.5119C72.6188 57.6479 72.6068 57.7902 72.6228 57.9309C72.6386 58.0714 72.682 58.2075 72.7505 58.3314C72.8191 58.4552 72.9113 58.5643 73.022 58.6524C73.1327 58.7406 73.2596 58.8061 73.3957 58.8451Z" stroke-width="1"></path><path fill="#0f3f6c" stroke="#0f3f6c" stroke-linecap="round" stroke-linejoin="round" d="M67.2315 58.8872C67.5171 58.8872 67.791 58.7737 67.9929 58.5718S68.3084 58.0959 68.3084 57.8103V54.0411C68.3084 53.7555 68.1949 53.4816 67.9929 53.2796S67.5171 52.9642 67.2315 52.9642C66.9459 52.9642 66.6719 53.0777 66.47 53.2796S66.1546 53.7555 66.1546 54.0411V57.8103C66.1546 58.0959 66.2681 58.3698 66.47 58.5718S66.9459 58.8872 67.2315 58.8872Z" stroke-width="1"></path><path fill="#0f3f6c" stroke="#0f3f6c" stroke-linecap="round" stroke-linejoin="round" d="M69.3853 58.8872C69.6709 58.8872 69.9448 58.7737 70.1467 58.5718S70.4622 58.0959 70.4622 57.8103V54.0411C70.4622 53.7555 70.3487 53.4816 70.1467 53.2796S69.6709 52.9642 69.3853 52.9642C69.0997 52.9642 68.8257 53.0777 68.6238 53.2796S68.3084 53.7555 68.3084 54.0411V57.8103C68.3084 58.0959 68.4219 58.3698 68.6238 58.5718S69.0997 58.8872 69.3853 58.8872Z" stroke-width="1"></path><path fill="#0f3f6c" stroke="#0f3f6c" stroke-linecap="round" stroke-linejoin="round" d="M95.2309 50.8104H83.385C82.7902 50.8104 82.3081 51.2926 82.3081 51.8873V57.8103C82.3081 58.4051 82.7902 58.8872 83.385 58.8872H95.2309C95.8256 58.8872 96.3078 58.4051 96.3078 57.8103V51.8873C96.3078 51.2926 95.8256 50.8104 95.2309 50.8104Z" stroke-width="1"></path><path fill="#0f3f6c" stroke="#0f3f6c" stroke-linecap="round" stroke-linejoin="round" d="M95.2309 61.041H83.385C82.7902 61.041 82.3081 61.5231 82.3081 62.1179V68.0408C82.3081 68.6356 82.7902 69.1177 83.385 69.1177H95.2309C95.8256 69.1177 96.3078 68.6356 96.3078 68.0408V62.1179C96.3078 61.5231 95.8256 61.041 95.2309 61.041Z" stroke-width="1"></path><path fill="#0f3f6c" stroke="#0f3f6c" stroke-linecap="round" stroke-linejoin="round" d="M93.608 69.0606C93.7413 69.1079 93.8826 69.1285 94.0238 69.1213C94.165 69.114 94.3034 69.0788 94.4311 69.0181C94.5589 68.9573 94.6733 68.872 94.7681 68.7669C94.8628 68.6619 94.9359 68.5392 94.9832 68.4059L96.2453 64.8521C96.2926 64.7188 96.3132 64.5775 96.3059 64.4362C96.2986 64.295 96.2636 64.1565 96.2028 64.0288C96.1419 63.9012 96.0566 63.7866 95.9515 63.692C95.8465 63.5973 95.7239 63.5242 95.5905 63.4769H95.5905C95.4572 63.4295 95.3159 63.409 95.1746 63.4163C95.0335 63.4236 94.895 63.4586 94.7672 63.5195C94.6396 63.5802 94.5252 63.6656 94.4304 63.7706C94.3357 63.8757 94.2626 63.9983 94.2153 64.1317L92.9564 67.6801C92.9082 67.8135 92.8868 67.9551 92.8934 68.0967C92.9001 68.2384 92.9348 68.3775 92.9953 68.5057C93.0558 68.634 93.1411 68.7491 93.2462 68.8443C93.3514 68.9395 93.4743 69.0131 93.608 69.0607H93.608Z" stroke-width="1"></path><path fill="#0f3f6c" stroke="#0f3f6c" stroke-linecap="round" stroke-linejoin="round" d="M91.4617 69.1177C91.7473 69.1177 92.0213 69.0043 92.2232 68.8023C92.4251 68.6004 92.5386 68.3264 92.5386 68.0408V64.2717C92.5386 63.9861 92.4251 63.7121 92.2232 63.5102S91.7473 63.1948 91.4617 63.1948C91.1761 63.1948 90.9021 63.3083 90.7002 63.5102S90.3848 63.9861 90.3848 64.2717V68.0408C90.3848 68.3264 90.4983 68.6004 90.7002 68.8023C90.9021 69.0043 91.1761 69.1177 91.4617 69.1177Z" stroke-width="1"></path><path fill="#0f3f6c" stroke="#0f3f6c" stroke-linecap="round" stroke-linejoin="round" d="M83.385 69.1177C83.6705 69.1177 83.9445 69.0043 84.1464 68.8023C84.3484 68.6004 84.4619 68.3264 84.4619 68.0408V64.2717C84.4619 63.9861 84.3483 63.7121 84.1464 63.5102S83.6706 63.1948 83.385 63.1948C83.0994 63.1948 82.8254 63.3083 82.6235 63.5102S82.3081 63.9861 82.3081 64.2717V68.0408C82.3081 68.3264 82.4216 68.6004 82.6235 68.8023C82.8254 69.0043 83.0994 69.1177 83.385 69.1177Z" stroke-width="1"></path><path fill="#0f3f6c" stroke="#0f3f6c" stroke-linecap="round" stroke-linejoin="round" d="M95.2309 52.9642H94.6924C94.0976 52.9642 93.6155 53.4464 93.6155 54.0411V57.8103C93.6155 58.4051 94.0976 58.8872 94.6924 58.8872H95.2309C95.8256 58.8872 96.3078 58.4051 96.3078 57.8103V54.0411C96.3078 53.4464 95.8256 52.9642 95.2309 52.9642Z" stroke-width="1"></path><path fill="#0f3f6c" stroke="#0f3f6c" stroke-linecap="round" stroke-linejoin="round" d="M90.3848 52.9642H89.8464C89.2516 52.9642 88.7695 53.4464 88.7695 54.0411V57.8103C88.7695 58.4051 89.2516 58.8872 89.8464 58.8872H90.3848C90.9796 58.8872 91.4617 58.4051 91.4617 57.8103V54.0411C91.4617 53.4464 90.9796 52.9642 90.3848 52.9642Z" stroke-width="1"></path><path fill="#0f3f6c" stroke="#0f3f6c" stroke-linecap="round" stroke-linejoin="round" d="M86.0772 63.1948H85.5388C84.944 63.1948 84.4619 63.6769 84.4619 64.2717V68.0408C84.4619 68.6356 84.944 69.1177 85.5388 69.1177H86.0772C86.672 69.1177 87.1541 68.6356 87.1541 68.0408V64.2717C87.1541 63.6769 86.672 63.1948 86.0772 63.1948Z" stroke-width="1"></path><path fill="#0f3f6c" stroke="#0f3f6c" stroke-linecap="round" stroke-linejoin="round" d="M68.3084 63.1948H67.2315C66.6367 63.1948 66.1546 63.6769 66.1546 64.2717V68.0408C66.1546 68.6356 66.6367 69.1177 67.2315 69.1177H68.3084C68.9031 69.1177 69.3853 68.6356 69.3853 68.0408V64.2717C69.3853 63.6769 68.9031 63.1948 68.3084 63.1948Z" stroke-width="1"></path><path fill="#0f3f6c" stroke="#0f3f6c" stroke-linecap="round" stroke-linejoin="round" d="M92.5386 58.8872C92.253 58.8872 91.979 58.7737 91.7771 58.5718S91.4617 58.0959 91.4617 57.8103V54.0411C91.4617 53.7555 91.5752 53.4816 91.7771 53.2796S92.253 52.9642 92.5386 52.9642C92.8242 52.9642 93.0982 53.0777 93.3001 53.2796S93.6155 53.7555 93.6155 54.0411V57.8103C93.6155 58.0959 93.502 58.3698 93.3001 58.5718S92.8242 58.8872 92.5386 58.8872Z" stroke-width="1"></path><path fill="#0f3f6c" stroke="#0f3f6c" stroke-linecap="round" stroke-linejoin="round" d="M87.6926 58.8872C87.407 58.8872 87.133 58.7737 86.9311 58.5718S86.6157 58.0959 86.6157 57.8103V54.0411C86.6157 53.7555 86.7292 53.4816 86.9311 53.2796S87.407 52.9642 87.6926 52.9642C87.9781 52.9642 88.2521 53.0777 88.454 53.2796S88.7695 53.7555 88.7695 54.0411V57.8103C88.7695 58.0959 88.6559 58.3698 88.454 58.5718S87.9782 58.8872 87.6926 58.8872Z" stroke-width="1"></path><path fill="#0f3f6c" stroke="#0f3f6c" stroke-linecap="round" stroke-linejoin="round" d="M85.5388 58.8872C85.2532 58.8872 84.9792 58.7737 84.7773 58.5718S84.4619 58.0959 84.4619 57.8103V54.0411C84.4619 53.7555 84.5754 53.4816 84.7773 53.2796S85.2532 52.9642 85.5388 52.9642C85.8243 52.9642 86.0983 53.0777 86.3002 53.2796S86.6157 53.7555 86.6157 54.0411V57.8103C86.6157 58.0959 86.5021 58.3698 86.3002 58.5718S85.8244 58.8872 85.5388 58.8872Z" stroke-width="1"></path><path fill="#0f3f6c" stroke="#0f3f6c" stroke-linecap="round" stroke-linejoin="round" d="M83.385 58.8872C83.0994 58.8872 82.8254 58.7737 82.6235 58.5718S82.3081 58.0959 82.3081 57.8103V54.0411C82.3081 53.7555 82.4216 53.4816 82.6235 53.2796S83.0994 52.9642 83.385 52.9642C83.6705 52.9642 83.9445 53.0777 84.1464 53.2796S84.4619 53.7555 84.4619 54.0411V57.8103C84.4619 58.0959 84.3483 58.3698 84.1464 58.5718S83.6706 58.8872 83.385 58.8872Z" stroke-width="1"></path><path fill="#0f3f6c" d="M32.6188 82.2161C46.2982 82.2161 57.3875 81.3844 57.3875 80.3584C57.3875 79.3324 46.2982 78.5008 32.6188 78.5008C18.9394 78.5008 7.8502 79.3324 7.8502 80.3584C7.8502 81.3844 18.9394 82.2161 32.6188 82.2161Z" stroke-width="1"></path><path fill="#f9faf8" d="M47.9647 50.0167H16.1961C15.4822 50.0167 14.7974 50.3003 14.2924 50.8053C13.7875 51.3101 13.5039 51.9949 13.5039 52.7089V66.8971C13.5039 67.1828 13.6174 67.4566 13.8193 67.6585C14.0212 67.8606 14.2952 67.974 14.5808 67.974H49.58C49.8656 67.974 50.1396 67.8606 50.3415 67.6585C50.5435 67.4566 50.6569 67.1828 50.6569 66.8971V52.7089C50.6569 51.9949 50.3733 51.3101 49.8684 50.8053C49.3634 50.3003 48.6786 50.0167 47.9647 50.0167Z" stroke-width="1"></path><path stroke="#0f3f6c" stroke-linecap="round" stroke-linejoin="round" d="M47.9647 50.0167H16.1961C15.4822 50.0167 14.7974 50.3003 14.2924 50.8053C13.7875 51.3101 13.5039 51.9949 13.5039 52.7089V66.8971C13.5039 67.1828 13.6174 67.4566 13.8193 67.6585C14.0212 67.8606 14.2952 67.974 14.5808 67.974H49.58C49.8656 67.974 50.1396 67.8606 50.3415 67.6585C50.5435 67.4566 50.6569 67.1828 50.6569 66.8971V52.7089C50.6569 51.9949 50.3733 51.3101 49.8684 50.8053C49.3634 50.3003 48.6786 50.0167 47.9647 50.0167H47.9647Z" stroke-width="1"></path><path fill="#f9faf8" d="M17.2192 79.1199H10.9732C10.6599 79.1185 10.36 78.993 10.139 78.7709C9.918 78.549 9.794 78.2485 9.794 77.9353V58.1203C9.794 57.9506 9.8273 57.7826 9.8923 57.6258C9.9573 57.469 10.0524 57.3265 10.1725 57.2066C10.2925 57.0865 10.4349 56.9913 10.5917 56.9264C10.7485 56.8614 10.9165 56.828 11.0862 56.828H15.9323C16.102 56.828 16.27 56.8614 16.4268 56.9264C16.5836 56.9913 16.7261 57.0865 16.846 57.2066C16.9661 57.3265 17.0613 57.469 17.1262 57.6258C17.1912 57.7826 17.2246 57.9506 17.2246 58.1203L17.2192 79.1199Z" stroke-width="1"></path><path stroke="#0f3f6c" stroke-linecap="round" stroke-linejoin="round" d="M17.2192 79.1199H10.9732C10.6599 79.1185 10.36 78.993 10.139 78.7709C9.918 78.549 9.794 78.2485 9.794 77.9353V58.1203C9.794 57.9506 9.8273 57.7826 9.8923 57.6258C9.9573 57.469 10.0524 57.3265 10.1725 57.2066C10.2925 57.0865 10.4349 56.9913 10.5917 56.9264C10.7485 56.8614 10.9165 56.828 11.0862 56.828H15.9323C16.102 56.828 16.27 56.8614 16.4268 56.9264C16.5836 56.9913 16.7261 57.0865 16.846 57.2066C16.9661 57.3265 17.0613 57.469 17.1262 57.6258C17.1912 57.7826 17.2246 57.9506 17.2246 58.1203L17.2192 79.1199Z" stroke-width="1"></path><path fill="#f9faf8" d="M46.9416 67.9741H17.2192V79.12H46.9416V67.9741Z" stroke-width="1"></path><path stroke="#0f3f6c" stroke-linecap="round" stroke-linejoin="round" d="M46.9416 67.9741H17.2192V79.12H46.9416V67.9741Z" stroke-width="1"></path><path fill="#f9faf8" d="M53.1919 79.1199H46.9459V58.1203C46.9459 57.7775 47.082 57.4489 47.3244 57.2066C47.5667 56.9642 47.8954 56.828 48.2382 56.828H53.0842C53.427 56.828 53.7557 56.9642 53.998 57.2066C54.2404 57.4489 54.3765 57.7775 54.3765 58.1203V77.9353C54.3765 78.2494 54.2517 78.5507 54.0295 78.7729C53.8074 78.995 53.5061 79.1199 53.1919 79.1199Z" stroke-width="1"></path><path stroke="#0f3f6c" stroke-linecap="round" stroke-linejoin="round" d="M53.1919 79.1199H46.9459V58.1203C46.9459 57.7775 47.082 57.4489 47.3244 57.2066C47.5667 56.9642 47.8954 56.828 48.2382 56.828H53.0842C53.427 56.828 53.7557 56.9642 53.998 57.2066C54.2404 57.4489 54.3765 57.7775 54.3765 58.1203V77.9353C54.3765 78.2494 54.2517 78.5507 54.0295 78.7729C53.8074 78.995 53.5061 79.1199 53.1919 79.1199Z" stroke-width="1"></path><path fill="#0f3f6c" d="M46.9416 58.1193C46.9416 57.7766 47.0777 57.4479 47.3201 57.2055C47.5624 56.9632 47.8911 56.8271 48.2339 56.8271H51.2729V56.6181C51.3117 53.3235 50.0636 50.1437 47.7944 47.7549C45.5251 45.3662 42.4135 43.9569 39.1212 43.8267C37.4753 43.7958 35.84 44.0933 34.3104 44.7018C32.7809 45.3103 31.3881 46.2177 30.2134 47.3707C29.0386 48.5238 28.1056 49.8995 27.4687 51.4174C26.8318 52.9354 26.5039 54.5649 26.5042 56.2111V58.6879H30.8409V67.9762H46.9384L46.9416 58.1193Z" stroke-width="1"></path><path fill="#f9faf8" stroke="#0f3f6c" stroke-linecap="round" stroke-linejoin="round" d="M42.2442 44.2855C42.0178 44.2217 41.8185 44.0857 41.6768 43.898C41.5349 43.7104 41.4586 43.4815 41.4591 43.2463V41.3477H36.3266V43.2484C36.3262 43.483 36.2492 43.7111 36.1073 43.8978C35.9653 44.0847 35.7663 44.22 35.5405 44.2833L35.337 44.3426L38.8907 48.1516L42.4499 44.3447L42.2442 44.2855Z" stroke-width="1"></path><path stroke="#0f3f6c" stroke-linecap="round" stroke-linejoin="round" d="M46.9416 58.1193C46.9416 57.7766 47.0777 57.4479 47.3201 57.2055C47.5624 56.9632 47.8911 56.8271 48.2339 56.8271H51.2729V56.6181C51.3117 53.3235 50.0636 50.1437 47.7944 47.7549C45.5251 45.3662 42.4135 43.9569 39.1212 43.8267C37.4753 43.7958 35.84 44.0933 34.3104 44.7018C32.7809 45.3103 31.3881 46.2177 30.2134 47.3707C29.0386 48.5238 28.1056 49.8995 27.4687 51.4174C26.8318 52.9354 26.5039 54.5649 26.5042 56.2111V58.6879H30.8409V67.9762H46.9384L46.9416 58.1193Z" stroke-width="1"></path><path stroke="#0f3f6c" stroke-linecap="round" stroke-linejoin="round" d="M38.8886 48.1591V67.9741" stroke-width="1"></path><path fill="#f9faf8" stroke="#0f3f6c" stroke-linecap="round" stroke-linejoin="round" d="M47.5576 35.2631C47.5547 34.9104 47.4298 34.5697 47.2039 34.2988C46.9782 34.0278 46.6655 33.8435 46.3192 33.777V32.7863C46.3192 31.8105 46.1269 30.8442 45.7536 29.9427C45.3801 29.0412 44.8328 28.222 44.1427 27.5321C43.4528 26.8421 42.6337 26.2947 41.7321 25.9212C40.8306 25.5479 39.8643 25.3556 38.8886 25.3556C37.9128 25.3556 36.9465 25.5479 36.045 25.9212C35.1434 26.2947 34.3243 26.8421 33.6344 27.5321C32.9443 28.222 32.397 29.0412 32.0235 29.9427C31.6502 30.8442 31.4579 31.8105 31.4579 32.7863V33.777C31.0963 33.844 30.7714 34.0402 30.5437 34.3289C30.3159 34.6177 30.2009 34.9794 30.22 35.3467C30.2391 35.7139 30.3911 36.0618 30.6475 36.3253C30.904 36.5889 31.2475 36.7503 31.6141 36.7794C31.9618 38.4517 32.875 39.9531 34.2 41.031C35.5251 42.1089 37.181 42.6973 38.8891 42.6973C40.5972 42.6973 42.2531 42.1089 43.5781 41.031C44.9031 39.9531 45.8164 38.4517 46.1641 36.7794C46.5432 36.7449 46.8959 36.5706 47.1535 36.2903C47.4111 36.01 47.5551 35.6438 47.5576 35.2631Z" stroke-width="1"></path><path fill="#0f3f6c" d="M36.1026 34.644C36.6159 34.644 37.032 34.2279 37.032 33.7147C37.032 33.2013 36.6159 32.7853 36.1026 32.7853C35.5894 32.7853 35.1733 33.2013 35.1733 33.7147C35.1733 34.2279 35.5894 34.644 36.1026 34.644Z" stroke-width="1"></path><path fill="#0f3f6c" d="M41.6756 34.6428C42.1883 34.6428 42.6039 34.2273 42.6039 33.7145C42.6039 33.2019 42.1883 32.7863 41.6756 32.7863C41.1629 32.7863 40.7473 33.2019 40.7473 33.7145C40.7473 34.2273 41.1629 34.6428 41.6756 34.6428Z" stroke-width="1"></path><path fill="#0f3f6c" d="M34.8642 37.1208C35.3774 37.1208 35.7935 36.7047 35.7935 36.1914C35.7935 35.6782 35.3774 35.2621 34.8642 35.2621C34.3509 35.2621 33.9348 35.6782 33.9348 36.1914C33.9348 36.7047 34.3509 37.1208 34.8642 37.1208Z" stroke-width="1"></path><path fill="#0f3f6c" d="M42.914 37.1208C43.4273 37.1208 43.8434 36.7047 43.8434 36.1914C43.8434 35.6782 43.4273 35.2621 42.914 35.2621C42.4008 35.2621 41.9846 35.6782 41.9846 36.1914C41.9846 36.7047 42.4008 37.1208 42.914 37.1208Z" stroke-width="1"></path><path fill="#0f3f6c" stroke="#0f3f6c" stroke-linecap="round" stroke-linejoin="round" d="M31.4579 31.5479C31.5253 30.5308 31.8432 29.5463 32.3834 28.6819C32.9236 27.8176 33.6694 27.1003 34.554 26.5942C36.9232 25.1695 38.2693 24.7365 37.6501 23.4981C37.6501 23.4981 39.5078 24.1173 38.8886 25.3558C38.8886 25.3558 40.7462 24.1173 38.8886 21.6405C38.8886 21.6405 42.6039 22.8789 41.3654 25.3558C41.7132 25.1774 42.0095 24.9131 42.2263 24.588C42.4431 24.2628 42.5731 23.8876 42.6039 23.4981C42.6039 23.4981 46.3192 25.3558 46.3192 31.5479V33.7771C44.8341 33.5617 44.4572 32.5301 44.2784 31.4079C44.2476 31.2138 44.1783 31.0278 44.0744 30.8609C43.9706 30.6941 43.8342 30.5497 43.6735 30.4365C43.5129 30.3232 43.3312 30.2434 43.1391 30.2016C42.9471 30.1597 42.7486 30.1569 42.5554 30.1932C40.1354 30.6799 37.6428 30.6799 35.2228 30.1932C35.0296 30.1569 34.8311 30.1597 34.639 30.2016C34.447 30.2434 34.2652 30.3232 34.1046 30.4365C33.944 30.5497 33.8076 30.694 33.7037 30.8609C33.5999 31.0278 33.5305 31.2138 33.4997 31.4079C33.321 32.5311 32.9441 33.5617 31.4536 33.7771L31.4579 31.5479Z" stroke-width="1"></path><path fill="#0f3f6c" stroke="#0f3f6c" stroke-linecap="round" stroke-linejoin="round" d="M38.8875 44.5514C39.9062 44.3853 40.9073 44.125 41.878 43.7739C42.8464 43.4634 43.7139 42.8993 44.3908 42.1404C45.0675 41.3814 45.5288 40.4552 45.7269 39.4577L46.1641 36.7795C46.0858 37.3384 45.8188 37.8539 45.4076 38.2405S44.4654 38.8616 43.9026 38.9052C42.9822 39.0912 42.0253 38.9158 41.2308 38.4153C40.53 37.9741 39.7187 37.7401 38.8907 37.7401C38.0626 37.7401 37.2513 37.9741 36.5506 38.4153C35.7565 38.9159 34.8 39.0914 33.8799 38.9052C33.3171 38.8616 32.7862 38.6271 32.3749 38.2405C31.9637 37.8539 31.6967 37.3384 31.6184 36.7795L32.0492 39.4577C32.2474 40.4551 32.7088 41.3812 33.3856 42.1402C34.0623 42.8991 34.9298 43.4632 35.898 43.7739C36.8684 44.1247 37.8692 44.385 38.8875 44.5514H38.8875Z" stroke-width="1"></path><path fill="#f9faf8" stroke="#0f3f6c" stroke-linecap="round" stroke-linejoin="round" d="M30.8387 60.8525C30.8452 61.1412 30.7938 61.4282 30.6879 61.6968C30.5818 61.9654 30.4232 62.2101 30.2214 62.4165C30.0194 62.6229 29.7783 62.7869 29.5122 62.8989C29.246 63.0109 28.9602 63.0687 28.6715 63.0687S28.0968 63.0109 27.8307 62.8989C27.5646 62.7869 27.3235 62.6229 27.1216 62.4165C26.9197 62.2101 26.7612 61.9654 26.6551 61.6968C26.5491 61.4282 26.4977 61.1412 26.5042 60.8525V58.6858H30.8387V60.8525Z" stroke-width="1"></path><path fill="#f9faf8" d="M37.621 52.2544L37.4057 52.1941C35.4108 51.6245 33.275 51.8203 31.417 52.7434C31.2375 52.8333 31.0395 52.88 30.8387 52.88S30.44 52.8333 30.2604 52.7434C28.402 51.8203 26.266 51.6245 24.2707 52.1941L24.0554 52.2544C23.8756 52.306 23.7209 52.4213 23.62 52.5786C23.5192 52.736 23.479 52.9247 23.5072 53.1095L24.4829 58.8828C24.5013 59.0024 24.5477 59.1159 24.6184 59.2142C24.689 59.3124 24.7818 59.3926 24.8893 59.4481C24.9969 59.5037 25.116 59.533 25.2369 59.5337C25.358 59.5345 25.4774 59.5067 25.5856 59.4524C26.319 59.086 27.131 58.9049 27.9506 58.9254C28.7701 58.9459 29.5722 59.1672 30.2863 59.5698C30.4531 59.6625 30.6409 59.7112 30.8317 59.7112C31.0226 59.7112 31.2104 59.6625 31.3772 59.5698C32.0913 59.1672 32.8934 58.9459 33.7129 58.9254C34.5325 58.9049 35.3445 59.086 36.0779 59.4524C36.1861 59.5067 36.3055 59.5345 36.4266 59.5337C36.5475 59.533 36.6666 59.5037 36.7741 59.4481C36.8817 59.3926 36.9745 59.3124 37.0451 59.2142C37.1158 59.1159 37.1622 59.0024 37.1806 58.8828L38.1552 53.1095C38.1846 52.9265 38.1466 52.7391 38.0484 52.5819C37.9503 52.4247 37.7984 52.3084 37.6211 52.2544Z" stroke-width="1"></path><path stroke="#0f3f6c" stroke-linecap="round" stroke-linejoin="round" d="M37.621 52.2544L37.4057 52.1941C35.4108 51.6245 33.275 51.8203 31.417 52.7434C31.2375 52.8333 31.0395 52.88 30.8387 52.88S30.44 52.8333 30.2604 52.7434C28.402 51.8203 26.266 51.6245 24.2707 52.1941L24.0554 52.2544C23.8756 52.306 23.7209 52.4213 23.62 52.5786C23.5192 52.736 23.479 52.9247 23.5072 53.1095L24.4829 58.8828C24.5013 59.0024 24.5477 59.1159 24.6184 59.2142C24.689 59.3124 24.7818 59.3926 24.8893 59.4481C24.9969 59.5037 25.116 59.533 25.2369 59.5337C25.358 59.5345 25.4774 59.5067 25.5856 59.4524C26.319 59.086 27.131 58.9049 27.9506 58.9254C28.7701 58.9459 29.5722 59.1672 30.2863 59.5698C30.4531 59.6625 30.6409 59.7112 30.8317 59.7112C31.0226 59.7112 31.2104 59.6625 31.3772 59.5698C32.0913 59.1672 32.8934 58.9459 33.7129 58.9254C34.5325 58.9049 35.3445 59.086 36.0779 59.4524H36.0779C36.1861 59.5067 36.3055 59.5345 36.4266 59.5337C36.5475 59.533 36.6666 59.5037 36.7741 59.4481C36.8817 59.3926 36.9745 59.3124 37.0451 59.2142C37.1158 59.1159 37.1622 59.0024 37.1806 58.8828L38.1552 53.1095C38.1846 52.9265 38.1466 52.7391 38.0484 52.5819C37.9503 52.4247 37.7984 52.3084 37.6211 52.2544H37.6211Z" stroke-width="1"></path><path stroke="#0f3f6c" stroke-linecap="round" stroke-linejoin="round" d="M30.842 52.8802V59.6981" stroke-width="1"></path><path fill="#f9faf8" stroke="#0f3f6c" stroke-linecap="round" stroke-linejoin="round" d="M31.5559 60.5433H29.3203C29.0272 60.543 28.7435 60.439 28.5197 60.2496C28.2961 60.0601 28.1466 59.7976 28.098 59.5084L27.8923 58.27C27.8626 58.0926 27.8719 57.9109 27.9196 57.7374C27.9673 57.564 28.0522 57.403 28.1685 57.2657C28.2847 57.1285 28.4295 57.0182 28.5926 56.9426C28.7559 56.867 28.9337 56.8279 29.1135 56.8281H31.7627C31.9426 56.8279 32.1204 56.867 32.2836 56.9426C32.4468 57.0182 32.5916 57.1285 32.7078 57.2657C32.8241 57.403 32.909 57.564 32.9567 57.7374C33.0044 57.9109 33.0136 58.0927 32.9839 58.27L32.7782 59.5084C32.7298 59.7976 32.5804 60.0604 32.3566 60.2498C32.1328 60.4393 31.8492 60.5432 31.556 60.5433Z" stroke-width="1"></path><path stroke="#0f3f6c" stroke-linecap="round" stroke-linejoin="round" d="M46.9384 58.0665V54.9704" stroke-width="1"></path><path fill="#f9faf8" stroke="#0f3f6c" stroke-linecap="round" stroke-linejoin="round" d="M30.8398 66.7355C30.8399 66.302 30.931 65.8732 31.1073 65.4771C31.2836 65.0809 31.541 64.7261 31.863 64.4358C32.185 64.1454 32.5642 63.9258 32.9765 63.7912C33.3886 63.6567 33.8244 63.61 34.2557 63.6545C35.0373 63.7629 35.752 64.1545 36.2637 64.755C36.7756 65.3556 37.049 66.1233 37.032 66.9121V79.7391C37.032 79.9017 37 80.0628 36.9377 80.213C36.8755 80.3633 36.7843 80.4998 36.6693 80.6148S36.4177 80.821 36.2675 80.8833C36.1173 80.9455 35.9562 80.9775 35.7935 80.9775H30.8398V66.7355Z" stroke-width="1"></path><path fill="#f9faf8" stroke="#0f3f6c" stroke-linecap="round" stroke-linejoin="round" d="M30.8893 80.9775C30.6773 80.9792 30.4685 80.9264 30.2828 80.8239C30.0972 80.7215 29.941 80.573 29.8295 80.3929C29.7178 80.2126 29.6544 80.0067 29.6454 79.7949C29.6364 79.583 29.682 79.3725 29.778 79.1834C30.0992 78.6021 30.5705 78.1175 31.1426 77.7801C31.7149 77.4428 32.3671 77.265 33.0313 77.2654H33.6505C34.3028 77.265 34.9438 77.4364 35.5086 77.7625C36.0736 78.0887 36.5425 78.558 36.8683 79.1231C36.9775 79.3117 37.035 79.5256 37.035 79.7436C37.035 79.9615 36.9774 80.1754 36.8682 80.364C36.7589 80.5525 36.6018 80.7088 36.4127 80.8172C36.2236 80.9254 36.0093 80.9819 35.7914 80.9807L30.8894 80.9775Z" stroke-width="1"></path><path fill="#f9faf8" stroke="#0f3f6c" stroke-linecap="round" stroke-linejoin="round" d="M43.2446 62.4602C43.657 62.3791 44.0816 62.3829 44.4924 62.4712C44.9034 62.5596 45.2919 62.7307 45.6346 62.9742C45.9771 63.2176 46.2666 63.5283 46.4852 63.8872C46.7038 64.2463 46.8469 64.6459 46.9061 65.062C46.9926 65.872 46.7685 66.6845 46.2789 67.3353C45.7893 67.9863 45.0708 68.427 44.2687 68.5684L30.4683 71.293L29.5087 66.4329C29.4451 66.1108 29.512 65.7765 29.6948 65.5036C29.8776 65.2309 30.1612 65.0418 30.4833 64.978L43.2446 62.4602Z" stroke-width="1"></path><path fill="#f9faf8" stroke="#0f3f6c" stroke-linecap="round" stroke-linejoin="round" d="M29.512 66.4329C29.4699 66.2196 29.4846 65.9989 29.5549 65.7931C29.6251 65.5873 29.7483 65.4036 29.912 65.2606C30.0758 65.1175 30.2742 65.02 30.4876 64.9779C30.7009 64.9359 30.9215 64.9508 31.1273 65.0211C31.7452 65.2316 32.2965 65.6013 32.7259 66.0928C33.1553 66.5844 33.4474 67.1805 33.573 67.821L33.6936 68.4284C33.8214 69.0802 33.7721 69.7544 33.5507 70.3806C33.3293 71.0068 32.9439 71.5621 32.4347 71.9886C32.2679 72.1201 32.0701 72.2064 31.8603 72.239C31.6504 72.2716 31.4358 72.2495 31.237 72.175C31.0382 72.1004 30.8619 71.9757 30.7254 71.8131C30.5889 71.6505 30.4966 71.4553 30.4575 71.2466L29.512 66.4329Z" stroke-width="1"></path></svg>